STARTFONT 2.1
COMMENT $XConsortium: helvR10.bdf,v 1.13 95/01/26 18:02:53 gildea Exp $
COMMENT 
COMMENT +
COMMENT  Copyright 1984-1989, 1994 Adobe Systems Incorporated.
COMMENT  Copyright 1988, 1994 Digital Equipment Corporation.
COMMENT 
COMMENT  Adobe is a trademark of Adobe Systems Incorporated which may be
COMMENT  registered in certain jurisdictions.
COMMENT  Permission to use these trademarks is hereby granted only in
COMMENT  association with the images described in this file.
COMMENT 
COMMENT  Permission to use, copy, modify, distribute and sell this software
COMMENT  and its documentation for any purpose and without fee is hereby
COMMENT  granted, provided that the above copyright notices appear in all
COMMENT  copies and that both those copyright notices and this permission
COMMENT  notice appear in supporting documentation, and that the names of
COMMENT  Adobe Systems and Digital Equipment Corporation not be used in
COMMENT  advertising or publicity pertaining to distribution of the software
COMMENT  without specific, written prior permission.  Adobe Systems and
COMMENT  Digital Equipment Corporation make no representations about the
COMMENT  suitability of this software for any purpose.  It is provided "as
COMMENT  is" without express or implied warranty.
COMMENT -
FONT -Adobe-Helvetica-Medium-R-Normal--10-100-75-75-P-56-ISO8859-1
SIZE 10 75 75
FONTBOUNDINGBOX 11 13 -1 -2
STARTPROPERTIES 29
FOUNDRY "Adobe"
FAMILY_NAME "Helvetica"
WEIGHT_NAME "Medium"
SLANT "R"
SETWIDTH_NAME "Normal"
ADD_STYLE_NAME ""
PIXEL_SIZE 10
POINT_SIZE 100
RESOLUTION_X 75
RESOLUTION_Y 75
SPACING "P"
AVERAGE_WIDTH 56
CHARSET_REGISTRY "ISO10646"
CHARSET_ENCODING "1"
CAP_HEIGHT 8
X_HEIGHT 6
FONT_ASCENT 10
FONT_DESCENT 2
FACE_NAME "Helvetica"
COPYRIGHT "Copyright (c) 1984, 1987 Adobe Systems Incorporated. All Rights Reserved. Copyright (c) 1988, 1991 Digital Equipment Corporation. All Rights Reserved."
NOTICE "Helvetica is a trademark of Linotype-Hell AG and/or its subsidiaries.  "

STARTCHAR Lslash
ENCODING -1
SWIDTH 576 0
DWIDTH 6 0
BBX 5 8 0 0
BITMAP
40
40
40
60
C0
40
40
78
ENDCHAR
STARTCHAR OE
ENCODING -1
SWIDTH 1056 0
DWIDTH 11 0
BBX 9 8 1 0
BITMAP
7F80
8800
8800
8F80
8800
8800
8800
7F80
ENDCHAR
STARTCHAR Scaron
ENCODING -1
SWIDTH 672 0
DWIDTH 7 0
BBX 5 9 1 0
BITMAP
50
20
00
78
80
78
08
88
70
ENDCHAR
STARTCHAR Ydieresis
ENCODING -1
SWIDTH 672 0
DWIDTH 7 0
BBX 5 8 1 0
BITMAP
50
00
88
88
50
20
20
20
ENDCHAR
STARTCHAR Zcaron
ENCODING -1
SWIDTH 672 0
DWIDTH 7 0
BBX 5 9 1 0
BITMAP
50
20
00
F8
10
20
40
80
F8
ENDCHAR
STARTCHAR breve
ENCODING -1
SWIDTH 384 0
DWIDTH 4 0
BBX 4 2 0 6
BITMAP
90
60
ENDCHAR
STARTCHAR bullet
ENCODING -1
SWIDTH 384 0
DWIDTH 4 0
BBX 2 2 1 3
BITMAP
C0
C0
ENDCHAR
STARTCHAR caron
ENCODING -1
SWIDTH 288 0
DWIDTH 3 0
BBX 3 2 0 6
BITMAP
A0
40
ENDCHAR
STARTCHAR circumflex
ENCODING -1
SWIDTH 288 0
DWIDTH 3 0
BBX 3 2 0 6
BITMAP
40
A0
ENDCHAR
STARTCHAR dagger
ENCODING -1
SWIDTH 576 0
DWIDTH 6 0
BBX 5 10 0 -2
BITMAP
20
20
F8
20
20
20
20
20
20
20
ENDCHAR
STARTCHAR daggerdbl
ENCODING -1
SWIDTH 576 0
DWIDTH 6 0
BBX 5 10 0 -2
BITMAP
20
20
F8
20
20
20
20
F8
20
20
ENDCHAR
STARTCHAR dotaccent
ENCODING -1
SWIDTH 288 0
DWIDTH 3 0
BBX 1 1 1 7
BITMAP
80
ENDCHAR
STARTCHAR dotlessi
ENCODING -1
SWIDTH 192 0
DWIDTH 2 0
BBX 1 6 0 0
BITMAP
80
80
80
80
80
80
ENDCHAR
STARTCHAR ellipsis
ENCODING -1
SWIDTH 864 0
DWIDTH 9 0
BBX 7 1 1 0
BITMAP
92
ENDCHAR
STARTCHAR emdash
ENCODING -1
SWIDTH 960 0
DWIDTH 10 0
BBX 10 1 0 3
BITMAP
FFC0
ENDCHAR
STARTCHAR endash
ENCODING -1
SWIDTH 576 0
DWIDTH 6 0
BBX 6 1 0 3
BITMAP
FC
ENDCHAR
STARTCHAR fi
ENCODING -1
SWIDTH 576 0
DWIDTH 6 0
BBX 5 8 0 0
BITMAP
38
40
E8
48
48
48
48
48
ENDCHAR
STARTCHAR fl
ENCODING -1
SWIDTH 576 0
DWIDTH 6 0
BBX 5 8 0 0
BITMAP
38
48
E8
48
48
48
48
48
ENDCHAR
STARTCHAR florin
ENCODING 402
SWIDTH 480 0
DWIDTH 5 0
BBX 4 9 0 -2
BITMAP
30
40
E0
40
40
40
40
40
80
ENDCHAR
STARTCHAR fraction
ENCODING -1
SWIDTH 288 0
DWIDTH 3 0
BBX 4 7 -1 0
BITMAP
10
10
20
20
40
40
80
ENDCHAR
STARTCHAR grave
ENCODING -1
SWIDTH 288 0
DWIDTH 3 0
BBX 2 2 0 6
BITMAP
80
40
ENDCHAR
STARTCHAR guilsinglleft
ENCODING -1
SWIDTH 384 0
DWIDTH 4 0
BBX 3 5 0 0
BITMAP
20
40
80
40
20
ENDCHAR
STARTCHAR guilsinglright
ENCODING -1
SWIDTH 384 0
DWIDTH 4 0
BBX 3 5 0 0
BITMAP
80
40
20
40
80
ENDCHAR
STARTCHAR hungarumlaut
ENCODING -1
SWIDTH 480 0
DWIDTH 5 0
BBX 5 2 0 6
BITMAP
48
90
ENDCHAR
STARTCHAR lslash
ENCODING -1
SWIDTH 192 0
DWIDTH 2 0
BBX 3 8 -1 0
BITMAP
40
40
40
60
C0
40
40
40
ENDCHAR
STARTCHAR oe
ENCODING -1
SWIDTH 864 0
DWIDTH 9 0
BBX 8 6 0 0
BITMAP
76
89
8F
88
89
76
ENDCHAR
STARTCHAR ogonek
ENCODING -1
SWIDTH 288 0
DWIDTH 3 0
BBX 2 2 1 -2
BITMAP
80
C0
ENDCHAR
STARTCHAR perthousand
ENCODING -1
SWIDTH 1056 0
DWIDTH 11 0
BBX 10 7 0 0
BITMAP
4800
A800
5000
3000
2880
5540
4880
ENDCHAR
STARTCHAR quotedblbase
ENCODING -1
SWIDTH 384 0
DWIDTH 4 0
BBX 4 2 0 -1
BITMAP
50
A0
ENDCHAR
STARTCHAR quotedblleft
ENCODING -1
SWIDTH 384 0
DWIDTH 4 0
BBX 4 2 0 6
BITMAP
A0
50
ENDCHAR
STARTCHAR quotedblright
ENCODING -1
SWIDTH 384 0
DWIDTH 4 0
BBX 4 2 0 6
BITMAP
50
A0
ENDCHAR
STARTCHAR quotesinglbase
ENCODING -1
SWIDTH 192 0
DWIDTH 2 0
BBX 2 2 0 -1
BITMAP
40
80
ENDCHAR
STARTCHAR quotesingle
ENCODING -1
SWIDTH 192 0
DWIDTH 2 0
BBX 1 2 0 6
BITMAP
80
80
ENDCHAR
STARTCHAR ring
ENCODING -1
SWIDTH 288 0
DWIDTH 3 0
BBX 3 3 0 5
BITMAP
40
A0
40
ENDCHAR
STARTCHAR scaron
ENCODING -1
SWIDTH 480 0
DWIDTH 5 0
BBX 4 9 0 0
BITMAP
A0
40
00
60
90
60
10
90
60
ENDCHAR
STARTCHAR tilde
ENCODING -1
SWIDTH 384 0
DWIDTH 4 0
BBX 4 2 0 6
BITMAP
50
A0
ENDCHAR
STARTCHAR trademark
ENCODING -1
SWIDTH 960 0
DWIDTH 10 0
BBX 8 4 1 3
BITMAP
F1
5B
55
55
ENDCHAR
STARTCHAR zcaron
ENCODING -1
SWIDTH 480 0
DWIDTH 5 0
BBX 4 9 0 0
BITMAP
A0
40
00
F0
10
20
40
80
F0
ENDCHAR
STARTCHAR space
ENCODING 32
SWIDTH 288 0
DWIDTH 3 0
BBX 0 0 0 0
BITMAP
ENDCHAR
STARTCHAR exclam
ENCODING 33
SWIDTH 288 0
DWIDTH 3 0
BBX 1 8 1 0
BITMAP
80
80
80
80
80
80
00
80
ENDCHAR
STARTCHAR quotedbl
ENCODING 34
SWIDTH 384 0
DWIDTH 4 0
BBX 3 2 1 6
BITMAP
A0
A0
ENDCHAR
STARTCHAR numbersign
ENCODING 35
SWIDTH 576 0
DWIDTH 6 0
BBX 5 7 0 0
BITMAP
50
50
F8
50
F8
50
50
ENDCHAR
STARTCHAR dollar
ENCODING 36
SWIDTH 576 0
DWIDTH 6 0
BBX 5 9 0 -1
BITMAP
20
70
A8
A0
70
28
A8
70
20
ENDCHAR
STARTCHAR percent
ENCODING 37
SWIDTH 864 0
DWIDTH 9 0
BBX 8 8 0 0
BITMAP
64
94
68
08
10
16
29
26
ENDCHAR
STARTCHAR ampersand
ENCODING 38
SWIDTH 768 0
DWIDTH 8 0
BBX 6 8 1 0
BITMAP
20
50
50
60
A4
98
98
64
ENDCHAR
STARTCHAR quoteright
ENCODING 39
SWIDTH 288 0
DWIDTH 3 0
BBX 2 3 1 5
BITMAP
40
40
80
ENDCHAR
STARTCHAR parenleft
ENCODING 40
SWIDTH 384 0
DWIDTH 4 0
BBX 3 10 0 -2
BITMAP
20
40
40
80
80
80
80
40
40
20
ENDCHAR
STARTCHAR parenright
ENCODING 41
SWIDTH 384 0
DWIDTH 4 0
BBX 3 10 1 -2
BITMAP
80
40
40
20
20
20
20
40
40
80
ENDCHAR
STARTCHAR asterisk
ENCODING 42
SWIDTH 384 0
DWIDTH 4 0
BBX 3 3 0 5
BITMAP
A0
40
A0
ENDCHAR
STARTCHAR plus
ENCODING 43
SWIDTH 576 0
DWIDTH 6 0
BBX 5 5 0 1
BITMAP
20
20
F8
20
20
ENDCHAR
STARTCHAR comma
ENCODING 44
SWIDTH 288 0
DWIDTH 3 0
BBX 2 3 0 -2
BITMAP
40
40
80
ENDCHAR
STARTCHAR minus
ENCODING 45
SWIDTH 672 0
DWIDTH 7 0
BBX 5 1 1 3
BITMAP
F8
ENDCHAR
STARTCHAR period
ENCODING 46
SWIDTH 288 0
DWIDTH 3 0
BBX 1 1 1 0
BITMAP
80
ENDCHAR
STARTCHAR slash
ENCODING 47
SWIDTH 384 0
DWIDTH 4 0
BBX 4 10 0 -2
BITMAP
10
10
20
20
20
40
40
40
80
80
ENDCHAR
STARTCHAR zero
ENCODING 48
SWIDTH 576 0
DWIDTH 6 0
BBX 5 8 0 0
BITMAP
70
88
88
88
88
88
88
70
ENDCHAR
STARTCHAR one
ENCODING 49
SWIDTH 576 0
DWIDTH 6 0
BBX 2 8 2 0
BITMAP
40
C0
40
40
40
40
40
40
ENDCHAR
STARTCHAR two
ENCODING 50
SWIDTH 576 0
DWIDTH 6 0
BBX 5 8 0 0
BITMAP
70
88
08
08
30
40
80
F8
ENDCHAR
STARTCHAR three
ENCODING 51
SWIDTH 576 0
DWIDTH 6 0
BBX 5 8 0 0
BITMAP
70
88
08
30
08
08
88
70
ENDCHAR
STARTCHAR four
ENCODING 52
SWIDTH 576 0
DWIDTH 6 0
BBX 5 8 0 0
BITMAP
10
30
50
50
90
F8
10
10
ENDCHAR
STARTCHAR five
ENCODING 53
SWIDTH 576 0
DWIDTH 6 0
BBX 5 8 0 0
BITMAP
F8
80
80
F0
08
08
88
70
ENDCHAR
STARTCHAR six
ENCODING 54
SWIDTH 576 0
DWIDTH 6 0
BBX 5 8 0 0
BITMAP
70
88
80
B0
C8
88
88
70
ENDCHAR
STARTCHAR seven
ENCODING 55
SWIDTH 576 0
DWIDTH 6 0
BBX 5 8 0 0
BITMAP
F8
08
10
10
20
20
40
40
ENDCHAR
STARTCHAR eight
ENCODING 56
SWIDTH 576 0
DWIDTH 6 0
BBX 5 8 0 0
BITMAP
70
88
88
70
88
88
88
70
ENDCHAR
STARTCHAR nine
ENCODING 57
SWIDTH 576 0
DWIDTH 6 0
BBX 5 8 0 0
BITMAP
70
88
88
98
68
08
88
70
ENDCHAR
STARTCHAR colon
ENCODING 58
SWIDTH 288 0
DWIDTH 3 0
BBX 1 6 1 0
BITMAP
80
00
00
00
00
80
ENDCHAR
STARTCHAR semicolon
ENCODING 59
SWIDTH 288 0
DWIDTH 3 0
BBX 2 8 0 -2
BITMAP
40
00
00
00
00
40
40
80
ENDCHAR
STARTCHAR less
ENCODING 60
SWIDTH 576 0
DWIDTH 6 0
BBX 3 5 1 1
BITMAP
20
40
80
40
20
ENDCHAR
STARTCHAR equal
ENCODING 61
SWIDTH 480 0
DWIDTH 5 0
BBX 4 3 0 2
BITMAP
F0
00
F0
ENDCHAR
STARTCHAR greater
ENCODING 62
SWIDTH 576 0
DWIDTH 6 0
BBX 3 5 1 1
BITMAP
80
40
20
40
80
ENDCHAR
STARTCHAR question
ENCODING 63
SWIDTH 576 0
DWIDTH 6 0
BBX 4 8 1 0
BITMAP
60
90
10
20
40
40
00
40
ENDCHAR
STARTCHAR at
ENCODING 64
SWIDTH 1056 0
DWIDTH 11 0
BBX 10 10 0 -2
BITMAP
1F00
2080
4D40
9240
A240
A480
A480
9B00
4000
3E00
ENDCHAR
STARTCHAR A
ENCODING 65
SWIDTH 768 0
DWIDTH 8 0
BBX 7 8 0 0
BITMAP
10
10
28
28
44
7C
82
82
ENDCHAR
STARTCHAR B
ENCODING 66
SWIDTH 576 0
DWIDTH 6 0
BBX 5 8 0 0
BITMAP
F0
88
88
F0
88
88
88
F0
ENDCHAR
STARTCHAR C
ENCODING 67
SWIDTH 672 0
DWIDTH 7 0
BBX 6 8 0 0
BITMAP
78
84
80
80
80
80
84
78
ENDCHAR
STARTCHAR D
ENCODING 68
SWIDTH 672 0
DWIDTH 7 0
BBX 6 8 0 0
BITMAP
F0
88
84
84
84
84
88
F0
ENDCHAR
STARTCHAR E
ENCODING 69
SWIDTH 576 0
DWIDTH 6 0
BBX 5 8 0 0
BITMAP
F8
80
80
F8
80
80
80
F8
ENDCHAR
STARTCHAR F
ENCODING 70
SWIDTH 576 0
DWIDTH 6 0
BBX 5 8 0 0
BITMAP
F8
80
80
F0
80
80
80
80
ENDCHAR
STARTCHAR G
ENCODING 71
SWIDTH 672 0
DWIDTH 7 0
BBX 6 8 0 0
BITMAP
78
84
80
80
8C
84
8C
74
ENDCHAR
STARTCHAR H
ENCODING 72
SWIDTH 672 0
DWIDTH 7 0
BBX 6 8 0 0
BITMAP
84
84
84
FC
84
84
84
84
ENDCHAR
STARTCHAR I
ENCODING 73
SWIDTH 384 0
DWIDTH 4 0
BBX 3 8 0 0
BITMAP
E0
40
40
40
40
40
40
E0
ENDCHAR
STARTCHAR J
ENCODING 74
SWIDTH 480 0
DWIDTH 5 0
BBX 4 8 0 0
BITMAP
10
10
10
10
10
10
90
60
ENDCHAR
STARTCHAR K
ENCODING 75
SWIDTH 576 0
DWIDTH 6 0
BBX 5 8 0 0
BITMAP
88
90
A0
E0
90
90
88
88
ENDCHAR
STARTCHAR L
ENCODING 76
SWIDTH 480 0
DWIDTH 5 0
BBX 4 8 0 0
BITMAP
80
80
80
80
80
80
80
F0
ENDCHAR
STARTCHAR M
ENCODING 77
SWIDTH 768 0
DWIDTH 8 0
BBX 7 8 0 0
BITMAP
82
C6
C6
AA
AA
92
92
92
ENDCHAR
STARTCHAR N
ENCODING 78
SWIDTH 672 0
DWIDTH 7 0
BBX 6 8 0 0
BITMAP
C4
C4
A4
A4
94
94
8C
8C
ENDCHAR
STARTCHAR O
ENCODING 79
SWIDTH 672 0
DWIDTH 7 0
BBX 6 8 0 0
BITMAP
78
84
84
84
84
84
84
78
ENDCHAR
STARTCHAR P
ENCODING 80
SWIDTH 576 0
DWIDTH 6 0
BBX 5 8 0 0
BITMAP
F0
88
88
F0
80
80
80
80
ENDCHAR
STARTCHAR Q
ENCODING 81
SWIDTH 672 0
DWIDTH 7 0
BBX 6 10 0 -2
BITMAP
78
84
84
84
84
94
94
78
08
04
ENDCHAR
STARTCHAR R
ENCODING 82
SWIDTH 576 0
DWIDTH 6 0
BBX 5 8 0 0
BITMAP
F0
88
88
F0
88
88
88
88
ENDCHAR
STARTCHAR S
ENCODING 83
SWIDTH 576 0
DWIDTH 6 0
BBX 5 8 0 0
BITMAP
70
88
80
70
08
88
88
70
ENDCHAR
STARTCHAR T
ENCODING 84
SWIDTH 576 0
DWIDTH 6 0
BBX 5 8 0 0
BITMAP
F8
20
20
20
20
20
20
20
ENDCHAR
STARTCHAR U
ENCODING 85
SWIDTH 672 0
DWIDTH 7 0
BBX 6 8 0 0
BITMAP
84
84
84
84
84
84
84
78
ENDCHAR
STARTCHAR V
ENCODING 86
SWIDTH 768 0
DWIDTH 8 0
BBX 7 8 0 0
BITMAP
82
82
44
44
44
28
28
10
ENDCHAR
STARTCHAR W
ENCODING 87
SWIDTH 864 0
DWIDTH 9 0
BBX 9 8 0 0
BITMAP
8880
8880
4900
4900
5500
2200
2200
2200
ENDCHAR
STARTCHAR X
ENCODING 88
SWIDTH 576 0
DWIDTH 6 0
BBX 5 8 0 0
BITMAP
88
88
50
20
50
50
88
88
ENDCHAR
STARTCHAR Y
ENCODING 89
SWIDTH 576 0
DWIDTH 6 0
BBX 5 8 0 0
BITMAP
88
88
88
50
20
20
20
20
ENDCHAR
STARTCHAR Z
ENCODING 90
SWIDTH 576 0
DWIDTH 6 0
BBX 5 8 0 0
BITMAP
F8
08
10
20
20
40
80
F8
ENDCHAR
STARTCHAR bracketleft
ENCODING 91
SWIDTH 288 0
DWIDTH 3 0
BBX 2 10 1 -2
BITMAP
C0
80
80
80
80
80
80
80
80
C0
ENDCHAR
STARTCHAR backslash
ENCODING 92
SWIDTH 384 0
DWIDTH 4 0
BBX 4 10 0 -2
BITMAP
80
80
40
40
40
20
20
20
10
10
ENDCHAR
STARTCHAR bracketright
ENCODING 93
SWIDTH 288 0
DWIDTH 3 0
BBX 2 10 0 -2
BITMAP
C0
40
40
40
40
40
40
40
40
C0
ENDCHAR
STARTCHAR asciicircum
ENCODING 94
SWIDTH 576 0
DWIDTH 6 0
BBX 5 5 0 3
BITMAP
20
20
50
50
88
ENDCHAR
STARTCHAR underscore
ENCODING 95
SWIDTH 576 0
DWIDTH 6 0
BBX 6 1 0 -2
BITMAP
FC
ENDCHAR
STARTCHAR quoteleft
ENCODING 96
SWIDTH 288 0
DWIDTH 3 0
BBX 2 3 0 5
BITMAP
40
80
80
ENDCHAR
STARTCHAR a
ENCODING 97
SWIDTH 576 0
DWIDTH 6 0
BBX 5 6 0 0
BITMAP
E0
10
70
90
90
68
ENDCHAR
STARTCHAR b
ENCODING 98
SWIDTH 576 0
DWIDTH 6 0
BBX 5 8 0 0
BITMAP
80
80
B0
C8
88
88
C8
B0
ENDCHAR
STARTCHAR c
ENCODING 99
SWIDTH 480 0
DWIDTH 5 0
BBX 4 6 0 0
BITMAP
60
90
80
80
90
60
ENDCHAR
STARTCHAR d
ENCODING 100
SWIDTH 576 0
DWIDTH 6 0
BBX 5 8 0 0
BITMAP
08
08
68
98
88
88
98
68
ENDCHAR
STARTCHAR e
ENCODING 101
SWIDTH 480 0
DWIDTH 5 0
BBX 4 6 0 0
BITMAP
60
90
F0
80
90
60
ENDCHAR
STARTCHAR f
ENCODING 102
SWIDTH 384 0
DWIDTH 4 0
BBX 4 8 0 0
BITMAP
30
40
E0
40
40
40
40
40
ENDCHAR
STARTCHAR g
ENCODING 103
SWIDTH 576 0
DWIDTH 6 0
BBX 5 8 0 -2
BITMAP
68
98
88
88
98
68
08
70
ENDCHAR
STARTCHAR h
ENCODING 104
SWIDTH 576 0
DWIDTH 6 0
BBX 5 8 0 0
BITMAP
80
80
B0
C8
88
88
88
88
ENDCHAR
STARTCHAR i
ENCODING 105
SWIDTH 192 0
DWIDTH 2 0
BBX 1 8 0 0
BITMAP
80
00
80
80
80
80
80
80
ENDCHAR
STARTCHAR j
ENCODING 106
SWIDTH 192 0
DWIDTH 2 0
BBX 2 10 -1 -2
BITMAP
40
00
40
40
40
40
40
40
40
80
ENDCHAR
STARTCHAR k
ENCODING 107
SWIDTH 480 0
DWIDTH 5 0
BBX 4 8 0 0
BITMAP
80
80
90
A0
C0
A0
90
90
ENDCHAR
STARTCHAR l
ENCODING 108
SWIDTH 192 0
DWIDTH 2 0
BBX 1 8 0 0
BITMAP
80
80
80
80
80
80
80
80
ENDCHAR
STARTCHAR m
ENCODING 109
SWIDTH 768 0
DWIDTH 8 0
BBX 7 6 0 0
BITMAP
EC
92
92
92
92
92
ENDCHAR
STARTCHAR n
ENCODING 110
SWIDTH 576 0
DWIDTH 6 0
BBX 5 6 0 0
BITMAP
B0
C8
88
88
88
88
ENDCHAR
STARTCHAR o
ENCODING 111
SWIDTH 576 0
DWIDTH 6 0
BBX 5 6 0 0
BITMAP
70
88
88
88
88
70
ENDCHAR
STARTCHAR p
ENCODING 112
SWIDTH 576 0
DWIDTH 6 0
BBX 5 8 0 -2
BITMAP
B0
C8
88
88
C8
B0
80
80
ENDCHAR
STARTCHAR q
ENCODING 113
SWIDTH 576 0
DWIDTH 6 0
BBX 5 8 0 -2
BITMAP
68
98
88
88
98
68
08
08
ENDCHAR
STARTCHAR r
ENCODING 114
SWIDTH 384 0
DWIDTH 4 0
BBX 3 6 0 0
BITMAP
A0
C0
80
80
80
80
ENDCHAR
STARTCHAR s
ENCODING 115
SWIDTH 480 0
DWIDTH 5 0
BBX 4 6 0 0
BITMAP
60
90
60
10
90
60
ENDCHAR
STARTCHAR t
ENCODING 116
SWIDTH 384 0
DWIDTH 4 0
BBX 3 8 0 0
BITMAP
40
40
E0
40
40
40
40
60
ENDCHAR
STARTCHAR u
ENCODING 117
SWIDTH 480 0
DWIDTH 5 0
BBX 4 6 0 0
BITMAP
90
90
90
90
90
70
ENDCHAR
STARTCHAR v
ENCODING 118
SWIDTH 576 0
DWIDTH 6 0
BBX 5 6 0 0
BITMAP
88
88
50
50
20
20
ENDCHAR
STARTCHAR w
ENCODING 119
SWIDTH 768 0
DWIDTH 8 0
BBX 7 6 0 0
BITMAP
92
92
54
54
28
28
ENDCHAR
STARTCHAR x
ENCODING 120
SWIDTH 576 0
DWIDTH 6 0
BBX 5 6 0 0
BITMAP
88
50
20
50
88
88
ENDCHAR
STARTCHAR y
ENCODING 121
SWIDTH 480 0
DWIDTH 5 0
BBX 4 8 0 -2
BITMAP
90
90
A0
A0
60
40
40
80
ENDCHAR
STARTCHAR z
ENCODING 122
SWIDTH 480 0
DWIDTH 5 0
BBX 4 6 0 0
BITMAP
F0
10
20
40
80
F0
ENDCHAR
STARTCHAR braceleft
ENCODING 123
SWIDTH 288 0
DWIDTH 3 0
BBX 3 10 0 -2
BITMAP
20
40
40
40
80
40
40
40
40
20
ENDCHAR
STARTCHAR bar
ENCODING 124
SWIDTH 288 0
DWIDTH 3 0
BBX 1 10 1 -2
BITMAP
80
80
80
80
80
80
80
80
80
80
ENDCHAR
STARTCHAR braceright
ENCODING 125
SWIDTH 288 0
DWIDTH 3 0
BBX 3 10 0 -2
BITMAP
80
40
40
40
20
40
40
40
40
80
ENDCHAR
STARTCHAR asciitilde
ENCODING 126
SWIDTH 672 0
DWIDTH 7 0
BBX 6 2 0 3
BITMAP
64
98
ENDCHAR
STARTCHAR space
ENCODING 160
SWIDTH 288 0
DWIDTH 3 0
BBX 0 0 0 0
BITMAP
ENDCHAR
STARTCHAR exclamdown
ENCODING 161
SWIDTH 288 0
DWIDTH 3 0
BBX 1 8 1 -2
BITMAP
80
00
80
80
80
80
80
80
ENDCHAR
STARTCHAR cent
ENCODING 162
SWIDTH 576 0
DWIDTH 6 0
BBX 5 8 0 -1
BITMAP
10
70
A8
A0
A0
A8
70
40
ENDCHAR
STARTCHAR sterling
ENCODING 163
SWIDTH 576 0
DWIDTH 6 0
BBX 5 8 0 0
BITMAP
30
48
40
E0
40
40
48
B0
ENDCHAR
STARTCHAR currency
ENCODING 164
SWIDTH 480 0
DWIDTH 5 0
BBX 4 6 0 1
BITMAP
90
60
90
90
60
90
ENDCHAR
STARTCHAR yen
ENCODING 165
SWIDTH 576 0
DWIDTH 6 0
BBX 5 8 0 0
BITMAP
88
88
50
50
F8
20
F8
20
ENDCHAR
STARTCHAR brokenbar
ENCODING 166
SWIDTH 288 0
DWIDTH 3 0
BBX 1 10 1 -2
BITMAP
80
80
80
80
00
00
80
80
80
80
ENDCHAR
STARTCHAR section
ENCODING 167
SWIDTH 576 0
DWIDTH 6 0
BBX 5 10 0 -2
BITMAP
70
88
C0
70
98
C8
70
18
88
70
ENDCHAR
STARTCHAR dieresis
ENCODING 168
SWIDTH 288 0
DWIDTH 3 0
BBX 3 1 0 7
BITMAP
A0
ENDCHAR
STARTCHAR copyright
ENCODING 169
SWIDTH 864 0
DWIDTH 9 0
BBX 7 7 1 0
BITMAP
38
44
9A
A2
9A
44
38
ENDCHAR
STARTCHAR ordfeminine
ENCODING 170
SWIDTH 384 0
DWIDTH 4 0
BBX 3 5 0 3
BITMAP
E0
20
A0
00
E0
ENDCHAR
STARTCHAR guillemotleft
ENCODING 171
SWIDTH 576 0
DWIDTH 6 0
BBX 5 5 0 0
BITMAP
28
50
A0
50
28
ENDCHAR
STARTCHAR logicalnot
ENCODING 172
SWIDTH 672 0
DWIDTH 7 0
BBX 5 3 1 2
BITMAP
F8
08
08
ENDCHAR
STARTCHAR hyphen
ENCODING 173
SWIDTH 384 0
DWIDTH 4 0
BBX 3 1 0 3
BITMAP
E0
ENDCHAR
STARTCHAR registered
ENCODING 174
SWIDTH 864 0
DWIDTH 9 0
BBX 7 7 1 0
BITMAP
38
44
BA
B2
AA
44
38
ENDCHAR
STARTCHAR macron
ENCODING 175
SWIDTH 288 0
DWIDTH 3 0
BBX 3 1 0 7
BITMAP
E0
ENDCHAR
STARTCHAR degree
ENCODING 176
SWIDTH 384 0
DWIDTH 4 0
BBX 4 4 0 3
BITMAP
60
90
90
60
ENDCHAR
STARTCHAR plusminus
ENCODING 177
SWIDTH 576 0
DWIDTH 6 0
BBX 5 7 0 0
BITMAP
20
20
F8
20
20
00
F8
ENDCHAR
STARTCHAR twosuperior
ENCODING 178
SWIDTH 288 0
DWIDTH 3 0
BBX 3 4 0 3
BITMAP
60
A0
40
E0
ENDCHAR
STARTCHAR threesuperior
ENCODING 179
SWIDTH 288 0
DWIDTH 3 0
BBX 3 4 0 3
BITMAP
E0
40
20
C0
ENDCHAR
STARTCHAR acute
ENCODING 180
SWIDTH 288 0
DWIDTH 3 0
BBX 2 2 0 6
BITMAP
40
80
ENDCHAR
STARTCHAR mu
ENCODING 181
SWIDTH 480 0
DWIDTH 5 0
BBX 4 8 0 -2
BITMAP
90
90
90
90
90
F0
80
80
ENDCHAR
STARTCHAR paragraph
ENCODING 182
SWIDTH 576 0
DWIDTH 6 0
BBX 6 10 0 -2
BITMAP
7C
E8
E8
E8
68
28
28
28
28
28
ENDCHAR
STARTCHAR periodcentered
ENCODING 183
SWIDTH 288 0
DWIDTH 3 0
BBX 2 1 0 3
BITMAP
C0
ENDCHAR
STARTCHAR cedilla
ENCODING 184
SWIDTH 288 0
DWIDTH 3 0
BBX 2 2 0 -2
BITMAP
40
C0
ENDCHAR
STARTCHAR onesuperior
ENCODING 185
SWIDTH 288 0
DWIDTH 3 0
BBX 2 4 0 3
BITMAP
40
C0
40
40
ENDCHAR
STARTCHAR ordmasculine
ENCODING 186
SWIDTH 384 0
DWIDTH 4 0
BBX 3 5 0 3
BITMAP
E0
A0
E0
00
E0
ENDCHAR
STARTCHAR guillemotright
ENCODING 187
SWIDTH 576 0
DWIDTH 6 0
BBX 5 5 0 0
BITMAP
A0
50
28
50
A0
ENDCHAR
STARTCHAR onequarter
ENCODING 188
SWIDTH 864 0
DWIDTH 9 0
BBX 9 8 0 0
BITMAP
4200
C400
4400
4800
0900
1300
1780
2100
ENDCHAR
STARTCHAR onehalf
ENCODING 189
SWIDTH 864 0
DWIDTH 9 0
BBX 8 8 0 0
BITMAP
42
C4
44
48
0B
15
12
27
ENDCHAR
STARTCHAR threequarters
ENCODING 190
SWIDTH 864 0
DWIDTH 9 0
BBX 9 8 0 0
BITMAP
E200
4400
2400
C800
0900
1300
1780
2100
ENDCHAR
STARTCHAR questiondown
ENCODING 191
SWIDTH 576 0
DWIDTH 6 0
BBX 4 8 1 -2
BITMAP
20
00
20
20
40
80
90
60
ENDCHAR
STARTCHAR Agrave
ENCODING 192
SWIDTH 672 0
DWIDTH 7 0
BBX 7 11 0 0
BITMAP
20
10
00
10
10
28
28
44
7C
82
82
ENDCHAR
STARTCHAR Aacute
ENCODING 193
SWIDTH 672 0
DWIDTH 7 0
BBX 7 11 0 0
BITMAP
08
10
00
10
10
28
28
44
7C
82
82
ENDCHAR
STARTCHAR Acircumflex
ENCODING 194
SWIDTH 672 0
DWIDTH 7 0
BBX 7 11 0 0
BITMAP
10
28
00
10
10
28
28
44
7C
82
82
ENDCHAR
STARTCHAR Atilde
ENCODING 195
SWIDTH 672 0
DWIDTH 7 0
BBX 7 11 0 0
BITMAP
14
28
00
10
10
28
28
44
7C
82
82
ENDCHAR
STARTCHAR Adieresis
ENCODING 196
SWIDTH 672 0
DWIDTH 7 0
BBX 7 10 0 0
BITMAP
28
00
10
10
28
28
44
7C
82
82
ENDCHAR
STARTCHAR Aring
ENCODING 197
SWIDTH 672 0
DWIDTH 7 0
BBX 7 11 0 0
BITMAP
10
28
10
10
10
28
28
44
7C
82
82
ENDCHAR
STARTCHAR AE
ENCODING 198
SWIDTH 960 0
DWIDTH 10 0
BBX 9 8 0 0
BITMAP
1F80
1800
2800
2F80
4800
7800
8800
8F80
ENDCHAR
STARTCHAR Ccedilla
ENCODING 199
SWIDTH 672 0
DWIDTH 7 0
BBX 6 10 0 -2
BITMAP
78
84
80
80
80
80
84
78
10
30
ENDCHAR
STARTCHAR Egrave
ENCODING 200
SWIDTH 576 0
DWIDTH 6 0
BBX 5 11 0 0
BITMAP
40
20
00
F8
80
80
F8
80
80
80
F8
ENDCHAR
STARTCHAR Eacute
ENCODING 201
SWIDTH 576 0
DWIDTH 6 0
BBX 5 11 0 0
BITMAP
10
20
00
F8
80
80
F8
80
80
80
F8
ENDCHAR
STARTCHAR Ecircumflex
ENCODING 202
SWIDTH 576 0
DWIDTH 6 0
BBX 5 11 0 0
BITMAP
20
50
00
F8
80
80
80
F8
80
80
F8
ENDCHAR
STARTCHAR Edieresis
ENCODING 203
SWIDTH 576 0
DWIDTH 6 0
BBX 5 10 0 0
BITMAP
50
00
F8
80
80
F8
80
80
80
F8
ENDCHAR
STARTCHAR Igrave
ENCODING 204
SWIDTH 192 0
DWIDTH 2 0
BBX 2 11 -1 0
BITMAP
80
40
00
40
40
40
40
40
40
40
40
ENDCHAR
STARTCHAR Iacute
ENCODING 205
SWIDTH 192 0
DWIDTH 2 0
BBX 2 11 0 0
BITMAP
40
80
00
80
80
80
80
80
80
80
80
ENDCHAR
STARTCHAR Icircumflex
ENCODING 206
SWIDTH 192 0
DWIDTH 2 0
BBX 3 11 -1 0
BITMAP
40
A0
00
40
40
40
40
40
40
40
40
ENDCHAR
STARTCHAR Idieresis
ENCODING 207
SWIDTH 288 0
DWIDTH 3 0
BBX 3 10 -1 0
BITMAP
A0
00
40
40
40
40
40
40
40
40
ENDCHAR
STARTCHAR Eth
ENCODING 208
SWIDTH 672 0
DWIDTH 7 0
BBX 7 8 0 0
BITMAP
78
44
42
F2
42
42
44
78
ENDCHAR
STARTCHAR Ntilde
ENCODING 209
SWIDTH 672 0
DWIDTH 7 0
BBX 6 11 0 0
BITMAP
28
50
00
C4
C4
A4
A4
94
94
8C
8C
ENDCHAR
STARTCHAR Ograve
ENCODING 210
SWIDTH 672 0
DWIDTH 7 0
BBX 6 11 0 0
BITMAP
20
10
00
78
84
84
84
84
84
84
78
ENDCHAR
STARTCHAR Oacute
ENCODING 211
SWIDTH 672 0
DWIDTH 7 0
BBX 6 11 0 0
BITMAP
08
10
00
78
84
84
84
84
84
84
78
ENDCHAR
STARTCHAR Ocircumflex
ENCODING 212
SWIDTH 672 0
DWIDTH 7 0
BBX 6 11 0 0
BITMAP
10
28
00
78
84
84
84
84
84
84
78
ENDCHAR
STARTCHAR Otilde
ENCODING 213
SWIDTH 672 0
DWIDTH 7 0
BBX 6 11 0 0
BITMAP
28
50
00
78
84
84
84
84
84
84
78
ENDCHAR
STARTCHAR Odieresis
ENCODING 214
SWIDTH 672 0
DWIDTH 7 0
BBX 6 10 0 0
BITMAP
48
00
78
84
84
84
84
84
84
78
ENDCHAR
STARTCHAR multiply
ENCODING 215
SWIDTH 576 0
DWIDTH 6 0
BBX 5 5 0 1
BITMAP
88
50
20
50
88
ENDCHAR
STARTCHAR Oslash
ENCODING 216
SWIDTH 672 0
DWIDTH 7 0
BBX 6 10 0 -1
BITMAP
04
78
8C
94
94
A4
A4
C4
78
80
ENDCHAR
STARTCHAR Ugrave
ENCODING 217
SWIDTH 672 0
DWIDTH 7 0
BBX 6 11 0 0
BITMAP
20
10
00
84
84
84
84
84
84
84
78
ENDCHAR
STARTCHAR Uacute
ENCODING 218
SWIDTH 672 0
DWIDTH 7 0
BBX 6 11 0 0
BITMAP
10
20
00
84
84
84
84
84
84
84
78
ENDCHAR
STARTCHAR Ucircumflex
ENCODING 219
SWIDTH 672 0
DWIDTH 7 0
BBX 6 11 0 0
BITMAP
10
28
00
84
84
84
84
84
84
84
78
ENDCHAR
STARTCHAR Udieresis
ENCODING 220
SWIDTH 672 0
DWIDTH 7 0
BBX 6 10 0 0
BITMAP
48
00
84
84
84
84
84
84
84
78
ENDCHAR
STARTCHAR Yacute
ENCODING 221
SWIDTH 576 0
DWIDTH 6 0
BBX 5 11 0 0
BITMAP
10
20
00
88
88
88
50
20
20
20
20
ENDCHAR
STARTCHAR Thorn
ENCODING 222
SWIDTH 576 0
DWIDTH 6 0
BBX 5 8 0 0
BITMAP
80
80
F0
88
88
F0
80
80
ENDCHAR
STARTCHAR germandbls
ENCODING 223
SWIDTH 480 0
DWIDTH 5 0
BBX 4 8 0 0
BITMAP
60
90
90
A0
90
90
90
A0
ENDCHAR
STARTCHAR agrave
ENCODING 224
SWIDTH 480 0
DWIDTH 5 0
BBX 5 9 0 0
BITMAP
40
20
00
E0
10
70
90
90
68
ENDCHAR
STARTCHAR aacute
ENCODING 225
SWIDTH 480 0
DWIDTH 5 0
BBX 5 9 0 0
BITMAP
10
20
00
E0
10
70
90
90
68
ENDCHAR
STARTCHAR acircumflex
ENCODING 226
SWIDTH 480 0
DWIDTH 5 0
BBX 5 9 0 0
BITMAP
20
50
00
E0
10
70
90
90
68
ENDCHAR
STARTCHAR atilde
ENCODING 227
SWIDTH 480 0
DWIDTH 5 0
BBX 5 9 0 0
BITMAP
50
A0
00
E0
10
70
90
90
68
ENDCHAR
STARTCHAR adieresis
ENCODING 228
SWIDTH 480 0
DWIDTH 5 0
BBX 5 8 0 0
BITMAP
50
00
E0
10
70
90
90
68
ENDCHAR
STARTCHAR aring
ENCODING 229
SWIDTH 480 0
DWIDTH 5 0
BBX 5 9 0 0
BITMAP
20
50
20
E0
10
70
90
90
68
ENDCHAR
STARTCHAR ae
ENCODING 230
SWIDTH 768 0
DWIDTH 8 0
BBX 7 6 0 0
BITMAP
EC
12
7E
90
92
6C
ENDCHAR
STARTCHAR ccedilla
ENCODING 231
SWIDTH 480 0
DWIDTH 5 0
BBX 4 8 0 -2
BITMAP
60
90
80
80
90
60
20
60
ENDCHAR
STARTCHAR egrave
ENCODING 232
SWIDTH 480 0
DWIDTH 5 0
BBX 4 9 0 0
BITMAP
40
20
00
60
90
F0
80
90
60
ENDCHAR
STARTCHAR eacute
ENCODING 233
SWIDTH 480 0
DWIDTH 5 0
BBX 4 9 0 0
BITMAP
20
40
00
60
90
F0
80
90
60
ENDCHAR
STARTCHAR ecircumflex
ENCODING 234
SWIDTH 480 0
DWIDTH 5 0
BBX 4 9 0 0
BITMAP
20
50
00
60
90
F0
80
90
60
ENDCHAR
STARTCHAR edieresis
ENCODING 235
SWIDTH 480 0
DWIDTH 5 0
BBX 4 8 0 0
BITMAP
50
00
60
90
F0
80
90
60
ENDCHAR
STARTCHAR igrave
ENCODING 236
SWIDTH 192 0
DWIDTH 2 0
BBX 2 9 -1 0
BITMAP
80
40
00
40
40
40
40
40
40
ENDCHAR
STARTCHAR iacute
ENCODING 237
SWIDTH 192 0
DWIDTH 2 0
BBX 2 9 0 0
BITMAP
40
80
00
80
80
80
80
80
80
ENDCHAR
STARTCHAR icircumflex
ENCODING 238
SWIDTH 192 0
DWIDTH 2 0
BBX 3 9 -1 0
BITMAP
40
A0
00
40
40
40
40
40
40
ENDCHAR
STARTCHAR idieresis
ENCODING 239
SWIDTH 192 0
DWIDTH 2 0
BBX 3 8 0 0
BITMAP
A0
00
40
40
40
40
40
40
ENDCHAR
STARTCHAR eth
ENCODING 240
SWIDTH 576 0
DWIDTH 6 0
BBX 5 9 0 0
BITMAP
50
60
90
78
88
88
88
88
70
ENDCHAR
STARTCHAR ntilde
ENCODING 241
SWIDTH 480 0
DWIDTH 5 0
BBX 4 9 0 0
BITMAP
50
A0
00
E0
90
90
90
90
90
ENDCHAR
STARTCHAR ograve
ENCODING 242
SWIDTH 576 0
DWIDTH 6 0
BBX 5 9 0 0
BITMAP
40
20
00
70
88
88
88
88
70
ENDCHAR
STARTCHAR oacute
ENCODING 243
SWIDTH 576 0
DWIDTH 6 0
BBX 5 9 0 0
BITMAP
10
20
00
70
88
88
88
88
70
ENDCHAR
STARTCHAR ocircumflex
ENCODING 244
SWIDTH 576 0
DWIDTH 6 0
BBX 5 9 0 0
BITMAP
20
50
00
70
88
88
88
88
70
ENDCHAR
STARTCHAR otilde
ENCODING 245
SWIDTH 576 0
DWIDTH 6 0
BBX 5 9 0 0
BITMAP
28
50
00
70
88
88
88
88
70
ENDCHAR
STARTCHAR odieresis
ENCODING 246
SWIDTH 576 0
DWIDTH 6 0
BBX 5 8 0 0
BITMAP
50
00
70
88
88
88
88
70
ENDCHAR
STARTCHAR divide
ENCODING 247
SWIDTH 576 0
DWIDTH 6 0
BBX 5 5 0 1
BITMAP
20
00
F8
00
20
ENDCHAR
STARTCHAR oslash
ENCODING 248
SWIDTH 672 0
DWIDTH 7 0
BBX 7 8 0 -1
BITMAP
02
3C
4C
54
54
64
78
80
ENDCHAR
STARTCHAR ugrave
ENCODING 249
SWIDTH 480 0
DWIDTH 5 0
BBX 4 9 0 0
BITMAP
40
20
00
90
90
90
90
90
70
ENDCHAR
STARTCHAR uacute
ENCODING 250
SWIDTH 480 0
DWIDTH 5 0
BBX 4 9 0 0
BITMAP
20
40
00
90
90
90
90
90
70
ENDCHAR
STARTCHAR ucircumflex
ENCODING 251
SWIDTH 480 0
DWIDTH 5 0
BBX 4 9 0 0
BITMAP
20
50
00
90
90
90
90
90
70
ENDCHAR
STARTCHAR udieresis
ENCODING 252
SWIDTH 480 0
DWIDTH 5 0
BBX 4 8 0 0
BITMAP
50
00
90
90
90
90
90
70
ENDCHAR
STARTCHAR yacute
ENCODING 253
SWIDTH 480 0
DWIDTH 5 0
BBX 4 11 0 -2
BITMAP
10
20
00
90
90
A0
A0
60
40
40
80
ENDCHAR
STARTCHAR thorn
ENCODING 254
SWIDTH 576 0
DWIDTH 6 0
BBX 5 10 0 -2
BITMAP
80
80
B0
C8
88
88
C8
B0
80
80
ENDCHAR
STARTCHAR ydieresis
ENCODING 255
SWIDTH 480 0
DWIDTH 5 0
BBX 4 10 0 -2
BITMAP
50
00
90
90
A0
A0
60
40
40
80
ENDCHAR
STARTCHAR OE
ENCODING 338
SWIDTH 1056 0
DWIDTH 11 0
BBX 9 8 1 0
BITMAP
7F80
8800
8800
8F80
8800
8800
8800
7F80
ENDCHAR
STARTCHAR oe
ENCODING 339
SWIDTH 864 0
DWIDTH 9 0
BBX 8 6 0 0
BITMAP
76
89
8F
88
89
76
ENDCHAR
STARTCHAR Scaron
ENCODING 352
SWIDTH 672 0
DWIDTH 7 0
BBX 5 9 1 0
BITMAP
50
20
00
78
80
78
08
88
70
ENDCHAR
STARTCHAR scaron
ENCODING 353
SWIDTH 480 0
DWIDTH 5 0
BBX 4 9 0 0
BITMAP
A0
40
00
60
90
60
10
90
60
ENDCHAR
STARTCHAR Ydieresis
ENCODING 376
SWIDTH 672 0
DWIDTH 7 0
BBX 5 8 1 0
BITMAP
50
00
88
88
50
20
20
20
ENDCHAR
STARTCHAR Zcaron
ENCODING 381
SWIDTH 672 0
DWIDTH 7 0
BBX 5 9 1 0
BITMAP
50
20
00
F8
10
20
40
80
F8
ENDCHAR
STARTCHAR zcaron
ENCODING 382
SWIDTH 480 0
DWIDTH 5 0
BBX 4 9 0 0
BITMAP
A0
40
00
F0
10
20
40
80
F0
ENDCHAR
STARTCHAR circumflex
ENCODING 710
SWIDTH 288 0
DWIDTH 3 0
BBX 3 2 0 6
BITMAP
40
A0
ENDCHAR
STARTCHAR tilde
ENCODING 732
SWIDTH 384 0
DWIDTH 4 0
BBX 4 2 0 6
BITMAP
50
A0
ENDCHAR
STARTCHAR A
ENCODING 913
SWIDTH 768 0
DWIDTH 8 0
BBX 7 8 0 0
BITMAP
10
10
28
28
44
7C
82
82
ENDCHAR
STARTCHAR B
ENCODING 914
SWIDTH 576 0
DWIDTH 6 0
BBX 5 8 0 0
BITMAP
F0
88
88
F0
88
88
88
F0
ENDCHAR
STARTCHAR Gamma
ENCODING 915
SWIDTH 576 0
DWIDTH 6 0
BBX 5 8 0 0
BITMAP
F8
80
80
80
80
80
80
80
ENDCHAR
STARTCHAR Delta
ENCODING 916
SWIDTH 768 0
DWIDTH 8 0
BBX 7 9 0 0
BITMAP
10
10
28
28
44
44
82
82
FE
ENDCHAR
STARTCHAR E
ENCODING 917
SWIDTH 576 0
DWIDTH 6 0
BBX 5 8 0 0
BITMAP
F8
80
80
F8
80
80
80
F8
ENDCHAR
STARTCHAR Z
ENCODING 918
SWIDTH 576 0
DWIDTH 6 0
BBX 5 8 0 0
BITMAP
F8
08
10
20
20
40
80
F8
ENDCHAR
STARTCHAR H
ENCODING 919
SWIDTH 672 0
DWIDTH 7 0
BBX 6 8 0 0
BITMAP
84
84
84
FC
84
84
84
84
ENDCHAR
STARTCHAR Theta
ENCODING 920
SWIDTH 672 0
DWIDTH 7 0
BBX 6 8 0 0
BITMAP
78
84
84
FC
84
84
84
78
ENDCHAR
STARTCHAR I
ENCODING 921
SWIDTH 384 0
DWIDTH 4 0
BBX 3 8 0 0
BITMAP
E0
40
40
40
40
40
40
E0
ENDCHAR
STARTCHAR K
ENCODING 922
SWIDTH 576 0
DWIDTH 6 0
BBX 5 8 0 0
BITMAP
88
90
A0
E0
90
90
88
88
ENDCHAR
STARTCHAR Lambda
ENCODING 923
SWIDTH 768 0
DWIDTH 8 0
BBX 7 9 0 0
BITMAP
10
10
28
28
44
44
82
82
82
ENDCHAR
STARTCHAR M
ENCODING 924
SWIDTH 768 0
DWIDTH 8 0
BBX 7 8 0 0
BITMAP
82
C6
C6
AA
AA
92
92
92
ENDCHAR
STARTCHAR N
ENCODING 925
SWIDTH 672 0
DWIDTH 7 0
BBX 6 8 0 0
BITMAP
C4
C4
A4
A4
94
94
8C
8C
ENDCHAR
STARTCHAR Xi
ENCODING 926
SWIDTH 672 0
DWIDTH 7 0
BBX 6 8 0 0
BITMAP
FC
00
00
78
00
00
00
FC
ENDCHAR
STARTCHAR O
ENCODING 927
SWIDTH 672 0
DWIDTH 7 0
BBX 6 8 0 0
BITMAP
78
84
84
84
84
84
84
78
ENDCHAR
STARTCHAR Pi
ENCODING 928
SWIDTH 672 0
DWIDTH 7 0
BBX 6 8 0 0
BITMAP
FC
48
48
48
48
48
48
48
ENDCHAR
STARTCHAR P
ENCODING 929
SWIDTH 576 0
DWIDTH 6 0
BBX 5 8 0 0
BITMAP
F0
88
88
F0
80
80
80
80
ENDCHAR
STARTCHAR Sigma
ENCODING 931
SWIDTH 672 0
DWIDTH 7 0
BBX 6 8 0 0
BITMAP
FC
80
40
20
20
40
80
FC
ENDCHAR
STARTCHAR T
ENCODING 932
SWIDTH 576 0
DWIDTH 6 0
BBX 5 8 0 0
BITMAP
F8
20
20
20
20
20
20
20
ENDCHAR
STARTCHAR Y
ENCODING 933
SWIDTH 576 0
DWIDTH 6 0
BBX 5 8 0 0
BITMAP
88
88
88
50
20
20
20
20
ENDCHAR
STARTCHAR Phi
ENCODING 934
SWIDTH 576 0
DWIDTH 6 0
BBX 5 8 1 0
BITMAP
20
70
A8
A8
A8
A8
70
20
ENDCHAR
STARTCHAR X
ENCODING 935
SWIDTH 576 0
DWIDTH 6 0
BBX 5 8 0 0
BITMAP
88
88
50
20
50
50
88
88
ENDCHAR
STARTCHAR Psi
ENCODING 936
SWIDTH 576 0
DWIDTH 6 0
BBX 5 8 1 0
BITMAP
A8
A8
A8
A8
A8
70
20
20
ENDCHAR
STARTCHAR Omega
ENCODING 937
SWIDTH 672 0
DWIDTH 7 0
BBX 6 8 0 0
BITMAP
78
84
84
84
84
48
48
CC
ENDCHAR
STARTCHAR endash
ENCODING 8211
SWIDTH 576 0
DWIDTH 6 0
BBX 6 1 0 3
BITMAP
FC
ENDCHAR
STARTCHAR emdash
ENCODING 8212
SWIDTH 960 0
DWIDTH 10 0
BBX 10 1 0 3
BITMAP
FFC0
ENDCHAR
STARTCHAR quoteleft
ENCODING 8216
SWIDTH 288 0
DWIDTH 3 0
BBX 2 3 0 5
BITMAP
40
80
80
ENDCHAR
STARTCHAR quoteright
ENCODING 8217
SWIDTH 288 0
DWIDTH 3 0
BBX 2 3 1 5
BITMAP
40
40
80
ENDCHAR
STARTCHAR quotesinglbase
ENCODING 8218
SWIDTH 192 0
DWIDTH 2 0
BBX 2 2 0 -1
BITMAP
40
80
ENDCHAR
STARTCHAR quotereversed
ENCODING 8219
SWIDTH 288 0
DWIDTH 3 0
BBX 2 3 1 5
BITMAP
80
80
40
ENDCHAR
STARTCHAR quotedblleft
ENCODING 8220
SWIDTH 384 0
DWIDTH 4 0
BBX 4 2 0 6
BITMAP
A0
50
ENDCHAR
STARTCHAR quotedblright
ENCODING 8221
SWIDTH 384 0
DWIDTH 4 0
BBX 4 2 0 6
BITMAP
50
A0
ENDCHAR
STARTCHAR quotedblbase
ENCODING 8222
SWIDTH 384 0
DWIDTH 4 0
BBX 4 2 0 -1
BITMAP
50
A0
ENDCHAR
STARTCHAR uni201F
ENCODING 8223
SWIDTH 384 0
DWIDTH 4 0
BBX 4 2 0 6
BITMAP
A0
50
ENDCHAR
STARTCHAR dagger
ENCODING 8224
SWIDTH 576 0
DWIDTH 6 0
BBX 5 10 0 -2
BITMAP
20
20
F8
20
20
20
20
20
20
20
ENDCHAR
STARTCHAR daggerdbl
ENCODING 8225
SWIDTH 576 0
DWIDTH 6 0
BBX 5 10 0 -2
BITMAP
20
20
F8
20
20
20
20
F8
20
20
ENDCHAR
STARTCHAR bullet
ENCODING 8226
SWIDTH 384 0
DWIDTH 4 0
BBX 2 2 1 3
BITMAP
C0
C0
ENDCHAR
STARTCHAR ellipsis
ENCODING 8230
SWIDTH 864 0
DWIDTH 9 0
BBX 7 1 1 0
BITMAP
92
ENDCHAR
STARTCHAR perthousand
ENCODING 8240
SWIDTH 1056 0
DWIDTH 11 0
BBX 10 7 0 0
BITMAP
4800
A800
5000
3000
2880
5540
4880
ENDCHAR
STARTCHAR guilsinglleft
ENCODING 8249
SWIDTH 384 0
DWIDTH 4 0
BBX 3 5 0 0
BITMAP
20
40
80
40
20
ENDCHAR
STARTCHAR guilsinglright
ENCODING 8250
SWIDTH 384 0
DWIDTH 4 0
BBX 3 5 0 0
BITMAP
80
40
20
40
80
ENDCHAR
STARTCHAR uni20A5
ENCODING 8357
SWIDTH 768 0
DWIDTH 8 0
BBX 7 8 0 -1
BITMAP
08
EC
92
92
92
92
B2
20
ENDCHAR
STARTCHAR uni20A6
ENCODING 8358
SWIDTH 672 0
DWIDTH 7 0
BBX 6 8 0 0
BITMAP
C4
C4
FC
A4
FC
94
8C
8C
ENDCHAR
STARTCHAR uni20A9
ENCODING 8361
SWIDTH 864 0
DWIDTH 9 0
BBX 9 8 0 0
BITMAP
8880
8880
5F00
4900
5F00
2200
2200
2200
ENDCHAR
STARTCHAR Euro
ENCODING 8364
SWIDTH 768 0
DWIDTH 8 0
BBX 7 8 0 0
BITMAP
3C
42
F0
40
F0
40
42
3C
ENDCHAR
STARTCHAR uni20AD
ENCODING 8365
SWIDTH 576 0
DWIDTH 6 0
BBX 5 8 0 0
BITMAP
88
90
A0
F8
90
90
88
88
ENDCHAR
ENDFONT
